# xmcd CD database file generated by Grip 2.91
# 
# Track frame offsets:
#       150
#       13649
#       26763
#       40523
#       52638
#       67952
#       82042
#       94976
#       107922
#       121629
#       135267
#       149390
#       162959
#       179828
#       192985
#       206753
#       220128
#       234377
#       248738
#       263464
#       277601
#       290116
#       305610
#       317779
# 
# Disc length: 4412 seconds
# 
# Revision: 3
# Processed by: cddbd v1.4b41PL1 Copyright (c) Steve Scherf et al.
# Submitted via: Grip 2.91
# 
DISCID=50113a18
DTITLE=Various Artist - A Portrait Of Vintage Blues CD 1
DYEAR=1900
DGENRE=
TTITLE0=Nobody Knows You When You're Down And Out - Bessie Smith - 1929
TTITLE1=Easy Rider Blues - Blind Lemon Jefferson - 1927
TTITLE2=High Water Everywhere - Charlie Patton - 1929
TTITLE3=Prove It On Me Blues - Ma Rainey - 1928
TTITLE4=It Won't Be Long Now - Frank Stokes - 1928
TTITLE5=Mistreatin' Mama - Furry Lewis - 1928
TTITLE6=Give Me A Break Blues - Ida Cox - 1927
TTITLE7=Kansas City Blues - Memphis Jug Band - 1927
TTITLE8=Moaning The Blues - Victoria Spivey - 1929
TTITLE9=No More Women Blues - Texas Alexander - 1928
TTITLE10=Cross-Eyed Blues - Helen Humes - 1927
TTITLE11=Blind Arthur's Breakdown - Blind Blake - 1929
TTITLE12=Organ Grinder - Eva Taylor - 1933
TTITLE13=My Pencil Won't Write No More - Bo Carter - 1931
TTITLE14=While The Blood Runs Warm In Your Veins - Josh White - 1935
TTITLE15=Dyin' Gambler - Blind Willie McTell - 1935
TTITLE16=Drop Down Mama - Sleepy John Estes - 1935
TTITLE17=I'm Nuts About That Gal - Lonnie Johnson - 1932
TTITLE18=If You See My Rooster - Memphis Minnis - 1936
TTITLE19=Good Luck Blues - Washboard Sam - 1939
TTITLE20=How Long, How Long Blues - Bumble Bee Slim - 1935
TTITLE21=Sugar Mama Blues No. 1 - Tampa Red - 1934
TTITLE22=New Minglewood Blues - Noah Lewis - 1930
TTITLE23=Jealous Hearted Man - Buddy Moss - 1933
EXTD=
EXTT0=
EXTT1=
EXTT2=
EXTT3=
EXTT4=
EXTT5=
EXTT6=
EXTT7=
EXTT8=
EXTT9=
EXTT10=
EXTT11=
EXTT12=
EXTT13=
EXTT14=
EXTT15=
EXTT16=
EXTT17=
EXTT18=
EXTT19=
EXTT20=
EXTT21=
EXTT22=
EXTT23=
PLAYORDER=
